<svg width="546" height="495" viewBox="0 0 546 495" fill="none" xmlns="http://www.w3.org/2000/svg">
<path d="M382.288 250.5C382.288 335.025 313.807 403.5 229.389 403.5C144.971 403.5 76.4902 335.025 76.4902 250.5C76.4902 165.975 144.971 97.5 229.389 97.5C313.807 97.5 382.288 165.975 382.288 250.5Z" stroke="#FBFBFB" stroke-width="111"/>
<ellipse cx="60.9713" cy="452" rx="42.9791" ry="43" fill="#FBFBFB"/>
<ellipse cx="42.9836" cy="42.9956" rx="42.9836" ry="42.9956" transform="matrix(-0.888053 -0.459742 0.45939 -0.888235 506.496 245.443)" fill="#FBFBFB"/>
<line y1="-10.5" x2="29.6913" y2="-10.5" transform="matrix(0.706935 -0.707278 0.706935 0.707278 90.9551 437)" stroke="#FBFBFB" stroke-width="21"/>
<path d="M457.736 197.033L421.828 208.458" stroke="#FBFBFB" stroke-width="21"/>
<path d="M86.4505 51C86.4505 70.6132 70.5606 86.5 50.9753 86.5C31.3899 86.5 15.5 70.6132 15.5 51C15.5 31.3868 31.3899 15.5 50.9753 15.5C70.5606 15.5 86.4505 31.3868 86.4505 51Z" stroke="#FBFBFB" stroke-width="31"/>
<line y1="-10.5" x2="50.903" y2="-10.5" transform="matrix(0.59284 0.80532 -0.805045 0.593213 60.9707 78)" stroke="#FBFBFB" stroke-width="21"/>
</svg>
