<svg width="18" height="18" viewBox="0 0 18 18" fill="none" xmlns="http://www.w3.org/2000/svg">
<rect width="16" height="16" transform="translate(1 1)" fill="#33B0A4"/>
<path d="M5.42855 9.01068C5.41059 10.6695 5.69471 11.451 6.10788 11.8642C6.52422 12.2805 7.31887 12.5713 9.00003 12.5713C10.6808 12.5713 11.4645 12.2806 11.876 11.8665C12.2889 11.4508 12.5715 10.6654 12.5715 8.99986C12.5715 7.33431 12.2889 6.54889 11.876 6.13323C11.4645 5.71911 10.6808 5.42843 9.00003 5.42843C7.31964 5.42843 6.54686 5.71901 6.14032 6.1309C5.72754 6.54911 5.44665 7.33835 5.42855 9.01068Z" stroke="#F8F8F9" stroke-width="2" stroke-linecap="round" stroke-linejoin="round"/>
<path d="M9 1.57129V2.71415" stroke="#F8F8F9" stroke-width="2" stroke-linecap="round"/>
<path d="M9 15.2861V16.429" stroke="#F8F8F9" stroke-width="2" stroke-linecap="round"/>
<path d="M16.4277 9L15.2849 9" stroke="#F8F8F9" stroke-width="2" stroke-linecap="round"/>
<path d="M2.71484 9L1.57199 9" stroke="#F8F8F9" stroke-width="2" stroke-linecap="round"/>
<path d="M3.28516 3.28613L4.09328 4.09425" stroke="#F8F8F9" stroke-width="2" stroke-linecap="round"/>
<path d="M3.28516 14.9512L4.09328 14.143" stroke="#F8F8F9" stroke-width="2" stroke-linecap="round"/>
<path d="M14.9512 3.28613L14.143 4.09425" stroke="#F8F8F9" stroke-width="2" stroke-linecap="round"/>
<path d="M14.9512 14.9512L14.143 14.1431" stroke="#F8F8F9" stroke-width="2" stroke-linecap="round"/>
</svg>
